<svg fill="none" height="36" viewBox="0 0 113 36" width="113" xmlns="http://www.w3.org/2000/svg" xmlns:xlink="http://www.w3.org/1999/xlink"><clipPath id="a"><path d="m0 0h113v36h-113z"/></clipPath><g clip-path="url(#a)"><path d="m30.7277 6.84172-10.7962-6.049401c-1.8882-1.056364-4.2072-1.056364-6.0954 0l-10.7884 6.049401c-1.88816 1.05636-3.0477 3.00189-3.0477 5.11458v12.0912c0 2.1128 1.15954 4.0659 3.0477 5.1223l10.7962 6.0418c1.8882 1.0563 4.2073 1.0563 6.0954 0l10.7963-6.0418c1.8881-1.0564 3.0477-3.0095 3.0477-5.1223v-12.0912c-.0079-2.11269-1.1674-4.05822-3.0556-5.11458zm-11.3995 21.80368c0 .6536-.5484 1.1855-1.2222 1.1855h-2.4366c-.6738 0-1.2222-.5319-1.2222-1.1855v-8.2761h-8.53199c-.66595 0-1.21438-.532-1.21438-1.1856v-2.3635c0-.6536.54843-1.1856 1.22221-1.1856h13.40516zm0-14.5839h-4.8732v-6.6954c0-.65358.5485-1.18556 1.2223-1.18556h2.4366c.6737 0 1.2222.53198 1.2222 1.18556v6.6954zm9.7464 5.1222c0 .6536-.5484 1.1856-1.2222 1.1856h-6.9024v-4.7271h6.9024c.6738 0 1.2222.532 1.2222 1.1856z" fill="#1479ff"/><path d="m27.8521 15.6343h-6.9024v4.7346h6.9024c.6738 0 1.2222-.532 1.2222-1.1855v-2.3635c0-.6536-.5484-1.1856-1.2222-1.1856z" fill="#fff"/><g fill="#3c3c3c"><path d="m45.6767 19.6393c2.1154 0 3.5805-.722 4.4109-2.1583.1646-.2508.1176-.4484-.141-.5776l-.4309-.2204c-.235-.1216-.4309-.076-.5954.1368-.6346 1.1096-1.708 1.6568-3.2358 1.6568-2.0605 0-3.0868-.912-3.0868-2.736v-1.1551h7.1296c.4074 0 .6189-.19.6189-.5624v-1.102c0-1.2539-.3761-2.2419-1.136-2.97906-.7992-.77517-1.943-1.15516-3.4395-1.15516-1.4807 0-2.6168.37239-3.4002 1.11716-.7678.72956-1.1517 1.76316-1.1517 3.10066v2.5992c0 1.2539.3603 2.2267 1.0733 2.9183.76.7447 1.8882 1.1171 3.3846 1.1171zm-3.0869-6.7942c0-.9043.2664-1.6111.807-2.1203.5484-.5168 1.3397-.78276 2.3661-.78276 2.131 0 3.1966.96516 3.1966 2.89546v.6992h-6.3697z"/><path d="m57.9145 5.17703h-4.6146c-.4779 0-.7208.228-.7208.67638v12.82839c0 .456.2429.6764.7208.6764h4.6146c1.896 0 3.369-.4712 4.4266-1.4212 1.0264-.9348 1.5435-2.2191 1.5435-3.8531v-3.6402c0-1.64159-.5171-2.92594-1.5435-3.85311-1.0576-.94237-2.5306-1.41356-4.4266-1.41356zm3.4003 8.92967c0 1.9456-1.1282 2.9183-3.3768 2.9183h-2.7578v-9.51484h2.7578c2.2486 0 3.3768.97276 3.3768 2.91834z"/><path d="m70.4578 19.6621c1.5278 0 2.703-.3571 3.5413-1.0791.807-.6916 1.2144-1.6644 1.2144-2.9183v-2.9563c0-1.254-.4074-2.2344-1.2144-2.94113-.8383-.70677-2.0214-1.05636-3.5413-1.05636-1.5121 0-2.6795.35719-3.5021 1.05636-.8227.70673-1.2379 1.68713-1.2379 2.94113v2.9563c0 1.2539.4074 2.2267 1.2379 2.9183.8226.722 1.99 1.0791 3.5021 1.0791zm-2.3504-6.9537c0-1.2616.7834-1.9 2.3504-1.9 1.5826 0 2.3661.6308 2.3661 1.9v2.9563c0 1.2691-.7913 1.8999-2.3661 1.8999-1.567 0-2.3504-.6308-2.3504-1.8999z"/><path d="m85.618 16.1055-.9245-.2584c-.4388-.1444-.7443-.0152-.9088.4028-.3604.9195-1.1047 1.3755-2.2486 1.3755-1.4964 0-2.2486-.6536-2.2486-1.9607v-2.9563c0-1.3072.7443-1.9608 2.2486-1.9608 1.136 0 1.8882.4484 2.2486 1.3376.1802.456.4779.5928.9088.418l.9088-.2812c.4388-.1748.5876-.4712.4544-.8968-.6032-1.74792-2.0762-2.61429-4.4109-2.61429-3.1574 0-4.74 1.36799-4.74 4.09629v2.7587c0 2.7283 1.5199 4.0962 4.5519 4.0962 2.3505 0 3.8782-.8891 4.5912-2.6599.1802-.4256.0392-.7219-.4309-.8967z"/><path d="m94.3145 19.0002v-.9195c0-.4104-.2194-.6232-.6581-.6232-.9088 0-1.5121-.1368-1.8098-.418-.3448-.304-.5171-.9348-.5171-1.8771v-4.0127h2.3504c.4231 0 .6346-.2052.6346-.6232v-.91956c0-.40279-.2115-.60038-.6346-.60038h-2.3504v-1.79354c0-.40279-.2116-.60038-.6425-.60038h-1.1125c-.4231 0-.6346.19759-.6346.60038v1.80114h-1.4259c-.4153 0-.619.19759-.619.60038v.91956c0 .4104.2037.6232.619.6232h1.418v4.0963c0 1.7023.3604 2.8879 1.0891 3.5338.6894.6232 1.896.912 3.6274.8588.4466-.0228.666-.2356.666-.646z"/><path d="m100.308 8.71091c-1.5117 0-2.6791.35719-3.5018 1.05636-.8226.70673-1.2378 1.68713-1.2378 2.94113v2.9563c0 1.2539.4074 2.2267 1.2378 2.9183.8227.722 1.9901 1.0791 3.5018 1.0791 1.528 0 2.703-.3571 3.542-1.0791.807-.6916 1.214-1.6644 1.214-2.9183v-2.9563c0-1.254-.407-2.2344-1.214-2.94113-.839-.69917-2.022-1.05636-3.542-1.05636zm2.366 6.95379c0 1.2691-.791 1.8999-2.366 1.8999-1.5666 0-2.3501-.6308-2.3501-1.8999v-2.9563c0-1.2616.7835-1.9 2.3501-1.9 1.583 0 2.366.6308 2.366 1.9z"/><path d="m112.358 8.71091h-.658c-1.552.038-2.829.24319-3.831.60038-.533.21279-.807.59278-.807 1.14001v8.2913c0 .4104.211.6232.642.6232h1.136c.415 0 .619-.2052.619-.6232v-7.4326c0-.1368.07-.2128.204-.2432.532-.1596 1.183-.2432 1.958-.2432h.745c.423 0 .642-.2052.642-.6231v-.88161c-.008-.40279-.227-.60798-.65-.60798z"/><path d="m45.7477 28.3335c-.282-.5396-.6503-.8664-1.1047-.9956l2.1702-2.7663c.094-.114.0627-.1672-.094-.1672h-.329c-.1646 0-.2899.0532-.3683.152l-2.0526 2.6599h-1.0812v-2.6371c0-.1216-.0549-.1748-.1724-.1748h-.2977c-.1254 0-.1802.0608-.1802.1748v5.943c0 .1216.0627.1748.1802.1748h.2977c.1175 0 .1724-.0608.1724-.1748v-2.7283h.9323c.3526 0 .6268.0608.8226.1748.1802.114.3369.3116.4858.5928l1.0185 1.9683c.0627.1064.1802.1596.3682.1596h.2899c.1332 0 .1645-.0608.1018-.1748z"/><path d="m49.7978 26.0079c-.6268 0-1.1987.0988-1.7001.304-.2351.0912-.3448.2584-.3448.4864v3.7467c0 .1064.0549.1596.1646.1596h.2898c.1097 0 .1646-.0532.1646-.1596v-3.5719c0-.1064.047-.1824.141-.2204.3761-.1292.7835-.1976 1.2144-.1976.8539 0 1.277.4028 1.277 1.2084v2.7815c0 .1064.0549.1596.1645.1596h.2821c.1097 0 .1645-.0532.1645-.1596v-2.7967c.0079-1.1628-.6033-1.7404-1.8176-1.7404z"/><path d="m54.7884 26.0079c-.6189 0-1.1125.1444-1.4651.4332-.3604.2888-.5406.6916-.5406 1.2008v1.5655c0 .5016.1802.8968.5406 1.1856.3526.2888.8383.4332 1.4651.4332s1.1204-.1444 1.4808-.4332c.3604-.2812.5406-.684.5406-1.1856v-1.5655c0-.5092-.1802-.912-.5406-1.2008s-.854-.4332-1.4808-.4332zm1.4024 3.1995c0 .3344-.1253.6004-.376.7904-.2508.1976-.5955.2964-1.0264.2964-.4231 0-.76-.0988-1.0028-.2964-.2586-.19-.3839-.456-.3839-.7904v-1.5655c0-.3344.1253-.6004.3839-.798.2428-.1976.5797-.2888 1.0028-.2888.4309 0 .7756.0988 1.0264.2888.2507.1976.376.4636.376.798z"/><path d="m63.6415 26.1447h-.1802c-.1645 0-.2663.0532-.2898.1596l-.8227 2.7359c-.047.1444-.0862.3268-.1253.5624-.0392.2203-.0706.3495-.0862.3799h-.0235c-.0157-.038-.0392-.1748-.094-.4027-.0549-.2356-.1019-.4256-.1489-.5624l-.8697-2.6143c-.0391-.1064-.1253-.1596-.2663-.1596h-.1411c-.1488 0-.235.0532-.2663.1596l-.8775 2.6447c-.0392.1216-.0862.304-.1332.5396-.047.2279-.0784.3571-.094.3875h-.0314c-.0156-.038-.0391-.1748-.0862-.3875-.047-.2356-.0861-.4104-.1175-.532l-.8305-2.7511c-.0235-.1064-.1175-.1596-.282-.1596h-.2115c-.1332 0-.1802.0608-.1411.19l1.3476 4.2634c.0313.0912.1019.1444.2194.1444h.1958c.1176 0 .1881-.0456.2194-.1444l.9402-2.9031c.0392-.1216.0705-.266.1097-.456.0391-.1748.0626-.2736.0705-.304h.0235l.0627.304c.0391.1748.0783.3268.1175.456l.9401 2.9031c.0314.0912.1097.1444.2272.1444h.1959c.1254 0 .1959-.0456.2194-.1444l1.3554-4.2634c.0548-.1292.0078-.19-.1254-.19z"/><path d="m71.6489 24.4044h-.3447c-.1724 0-.2899.0532-.3448.1596l-1.9351 2.9183-1.9117-2.9183c-.0626-.1064-.1802-.1596-.3447-.1596h-.3761c-.141 0-.1723.0608-.094.1748l2.3896 3.5567v2.3863c0 .1216.0627.1748.1802.1748h.3055c.1254 0 .1802-.0608.1802-.1748v-2.3787l2.3896-3.5643c.0784-.114.047-.1748-.094-.1748z"/><path d="m73.6072 26.0079c-.6189 0-1.1125.1444-1.465.4332-.3604.2888-.5406.6916-.5406 1.2008v1.5655c0 .5016.1802.8968.5406 1.1856.3525.2888.8383.4332 1.465.4332.6268 0 1.1204-.1444 1.4808-.4332.3604-.2812.5406-.684.5406-1.1856v-1.5655c0-.5092-.1802-.912-.5406-1.2008s-.854-.4332-1.4808-.4332zm1.4024 3.1995c0 .3344-.1253.6004-.376.7904-.2507.1976-.5955.2964-1.0264.2964-.423 0-.7599-.0988-1.0028-.2964-.2585-.19-.3839-.456-.3839-.7904v-1.5655c0-.3344.1254-.6004.3839-.798.2429-.1976.5798-.2888 1.0028-.2888.4309 0 .7757.0988 1.0264.2888.2507.1976.376.4636.376.798z"/><path d="m80.4865 26.1447h-.2899c-.1096 0-.1645.0532-.1645.1596v3.5415c0 .1215-.0548.1975-.1645.2507-.3369.1292-.7286.1976-1.1909.1976-.8539 0-1.2848-.4028-1.2848-1.2159v-2.7663c0-.1064-.0549-.1596-.1646-.1596h-.282c-.1097 0-.1645.0532-.1645.1596v2.7967c0 1.1551.6032 1.7327 1.8098 1.7327.6502 0 1.2222-.0988 1.7079-.2888.235-.0912.3447-.2584.3447-.4864v-3.7466c.0079-.1216-.047-.1748-.1567-.1748z"/><path d="m84.2472 26.0079h-.2821c-.6424.0152-1.1908.1064-1.6531.2736-.235.0912-.3447.2584-.3447.494v3.7619c0 .1064.0548.1596.1645.1596h.2899c.1097 0 .1645-.0532.1645-.1596v-3.5719c0-.114.0549-.19.1567-.228.3447-.1216.7522-.1824 1.2066-.1824h.3055c.1097 0 .1645-.0532.1645-.1596v-.228c-.0078-.1064-.0626-.1596-.1723-.1596z"/><path d="m92.2856 24.4044h-.3056c-.1253 0-.1802.0608-.1802.1748v2.6295h-3.4864v-2.6295c0-.1216-.0549-.1748-.1724-.1748h-.3055c-.1254 0-.1802.0608-.1802.1748v5.943c0 .1216.0626.1748.1802.1748h.3055c.1175 0 .1724-.0608.1724-.1748v-2.7131h3.4864v2.7131c0 .1216.0627.1748.1802.1748h.3056c.1175 0 .1723-.0608.1723-.1748v-5.943c0-.114-.0626-.1748-.1723-.1748z"/><path d="m95.7011 26.0079c-.6582 0-1.1596.1672-1.5122.494-.3447.3268-.5092.7828-.5092 1.3756v1.1551c0 .5548.1567.988.4779 1.2996.3447.3344.8462.494 1.5121.494.9402 0 1.5905-.3192 1.9587-.9576.0705-.114.0549-.1976-.0627-.2584l-.1958-.0988c-.1019-.0532-.1959-.0304-.2664.0608-.2821.494-.76.7372-1.4338.7372-.9166 0-1.3711-.4028-1.3711-1.216v-.5168h3.1653c.1802 0 .2742-.0835.2742-.2507v-.4864c0-.5548-.1645-.9956-.5014-1.3224-.3604-.3344-.8697-.5092-1.5356-.5092zm1.4181 2.1128h-2.8284v-.3116c0-.4028.1175-.7144.3604-.9424s.5954-.342 1.0499-.342c.948 0 1.4181.4256 1.4181 1.2844z"/><path d="m100.574 26.0079c-.8848 0-1.4959.3116-1.8406.9348-.0549.114-.0235.19.094.228l.2193.0912c.0862.038.1646.0152.2272-.0684.2508-.4332.6738-.646 1.2771-.646.823 0 1.238.4028 1.238 1.216v.4104c-.549-.0608-.948-.0912-1.199-.0912-.7285 0-1.2377.0988-1.5433.304-.3133.2127-.47.5699-.47 1.0715 0 .4712.1331.8132.3917 1.0184.2977.2356.8305.3572 1.5826.3572.65 0 1.152-.076 1.52-.228.219-.0912.329-.2584.329-.5092v-2.3255c0-1.178-.611-1.7632-1.826-1.7632zm1.215 3.9215c0 .1216-.055.2128-.172.2584-.275.0988-.643.1444-1.105.1444-.509 0-.8542-.076-1.05-.228-.1645-.1368-.2507-.3572-.2507-.6536 0-.304.094-.532.2899-.6688.2037-.1368.5408-.2052 1.0258-.2052.29 0 .713.0228 1.262.076z"/><path d="m104.147 24.1384h-.282c-.11 0-.165.0532-.165.1596v6.247c0 .1064.055.1596.165.1596h.282c.11 0 .165-.0532.165-.1596v-6.247c0-.1064-.055-.1596-.165-.1596z"/><path d="m108.111 26.1447h-1.324v-.9044c0-.1064-.054-.1596-.164-.1596h-.282c-.11 0-.165.0532-.165.1596v.9044h-.877c-.11 0-.165.0532-.165.1596v.228c0 .1064.055.1596.165.1596h.869v2.3255c0 .7068.141 1.1856.431 1.444.282.2508.776.3724 1.489.3648.11 0 .164-.0532.164-.1596v-.2356c0-.114-.054-.1672-.164-.1672-.509 0-.854-.076-1.026-.228-.188-.1748-.282-.5168-.282-1.026v-2.3103h1.324c.109 0 .164-.0532.164-.1596v-.228c.008-.114-.047-.1672-.157-.1672z"/><path d="m111.175 26.008c-.58 0-1.058.0835-1.434.2507v-1.9607c0-.1064-.055-.1596-.165-.1596h-.282c-.109 0-.164.0532-.164.1596v6.247c0 .1064.055.1596.164.1596h.282c.11 0 .165-.0532.165-.1596v-3.7315c.353-.1748.807-.2584 1.355-.2584.854 0 1.277.4028 1.277 1.2084v2.7815c0 .1064.055.1596.165.1596h.29c.11 0 .164-.0532.164-.1596v-2.7967c.008-1.1628-.603-1.7403-1.817-1.7403z"/></g></g></svg>