<svg enable-background="new 89.437 -10.563 621.127 621.127" height="621.127" viewBox="89.437 -10.563 621.127 621.127" width="621.127" xmlns="http://www.w3.org/2000/svg"><path d="m109.437 10h581.127v580.562h-581.127z" fill="#dadbdc"/><path d="m94.437-5.563h621.127v621.127h-621.127zm380.909 259.62-8.185-47.831-167.531 29.415 24.553 139.908 16.627-2.813v12.021h170.087v-130.7zm-134.535 104.609-5.371 1.021-19.95-112.794 140.419-24.812 5.628 31.974h-120.726zm156.276 12.277h-142.466v-103.075h142.466zm-133.259-93.868v76.474l28.903-19.181 17.903 11.252 43.48-47.829 5.629 2.301 28.134 32.485v-55.502zm27.623 32.993c-6.648 0-12.276-5.626-12.276-12.277 0-6.65 5.628-12.279 12.276-12.279 6.651 0 12.276 5.626 12.276 12.279.002 6.651-5.625 12.277-12.276 12.277z" fill="#f3f4f4" transform="translate(-5 -5)"/></svg>