<svg width="32" height="32" viewBox="0 0 32 32" fill="none" xmlns="http://www.w3.org/2000/svg">
<path d="M24.1382 7.25309H22.29V5.61728C22.29 5.27778 22.0217 5 21.6938 5C21.3659 5 21.0976 5.27778 21.0976 5.61728V7.25309H10.9024V5.61728C10.9024 5.27778 10.6341 5 10.3062 5C9.97832 5 9.71003 5.27778 9.71003 5.61728V7.25309H7.86179C6.28184 7.25309 5 8.58025 5 10.216V22.037C5 23.6728 6.28184 25 7.86179 25H24.1382C25.7182 25 27 23.6728 27 22.037V10.216C27 8.58025 25.7182 7.25309 24.1382 7.25309ZM7.86179 8.48765H9.71003V9.87654C9.71003 10.216 9.97832 10.4938 10.3062 10.4938C10.6341 10.4938 10.9024 10.216 10.9024 9.87654V8.48765H21.0976V9.87654C21.0976 10.216 21.3659 10.4938 21.6938 10.4938C22.0217 10.4938 22.29 10.216 22.29 9.87654V8.48765H24.1382C25.0623 8.48765 25.8076 9.25926 25.8076 10.216V11.8519H6.19241V10.216C6.19241 9.25926 6.93767 8.48765 7.86179 8.48765ZM24.1382 23.7654H7.86179C6.93767 23.7654 6.19241 22.9938 6.19241 22.037V13.0864H25.8076V22.037C25.8076 22.9938 25.0623 23.7654 24.1382 23.7654ZM19.5176 15.8642C19.7561 16.1111 19.7561 16.4815 19.5176 16.7284L15.374 21.0185C15.2547 21.142 15.1057 21.2037 14.9566 21.2037C14.8076 21.2037 14.6585 21.142 14.5393 21.0185L12.4824 18.8889C12.2439 18.642 12.2439 18.2716 12.4824 18.0247C12.7209 17.7778 13.0786 17.7778 13.3171 18.0247L14.9566 19.7222L18.6829 15.8642C18.9214 15.6173 19.2791 15.6173 19.5176 15.8642Z" fill="#1C1C1C"/>
</svg>
