<svg width="24" height="24" viewBox="0 0 24 24" fill="none" xmlns="http://www.w3.org/2000/svg">
<path fill-rule="evenodd" clip-rule="evenodd" d="M11.1433 5.03571C7.77039 5.03571 5.03613 7.76997 5.03613 11.1428C5.03613 14.5157 7.77039 17.25 11.1433 17.25C12.7917 17.25 14.2876 16.5969 15.3863 15.5354C15.4073 15.5075 15.4304 15.4808 15.4558 15.4554C15.4812 15.43 15.5079 15.4068 15.5358 15.3858C16.5973 14.2871 17.2504 12.7913 17.2504 11.1428C17.2504 7.76997 14.5162 5.03571 11.1433 5.03571ZM17.0266 15.9655C18.1038 14.6529 18.7504 12.9734 18.7504 11.1428C18.7504 6.94154 15.3446 3.53571 11.1433 3.53571C6.94197 3.53571 3.53613 6.94154 3.53613 11.1428C3.53613 15.3442 6.94197 18.75 11.1433 18.75C12.9738 18.75 14.6534 18.1034 15.966 17.0262L19.1844 20.2446C19.4773 20.5375 19.9521 20.5375 20.245 20.2446C20.5379 19.9517 20.5379 19.4768 20.245 19.1839L17.0266 15.9655Z" fill="#37383A" stroke="#37383A" stroke-width="0.2" stroke-linecap="round" stroke-linejoin="round"/>
</svg>
