<svg width="16" height="16" viewBox="0 0 16 16" fill="none" xmlns="http://www.w3.org/2000/svg">
<path d="M8 16C12.4183 16 16 12.4183 16 8C16 3.58172 12.4183 0 8 0C3.58172 0 0 3.58172 0 8C0 12.4183 3.58172 16 8 16Z" fill="#F2994A"/>
<path d="M8 0C3.58172 0 0 3.58172 0 8C0 12.4183 3.58172 16 8 16C12.4183 16 16 12.4183 16 8C16 3.58172 12.4183 0 8 0ZM8 9.90625C6.94722 9.90625 6.09375 9.05278 6.09375 8C6.09375 6.94722 6.94722 6.09375 8 6.09375C9.05278 6.09375 9.90625 6.94722 9.90625 8C9.90625 9.05278 9.05278 9.90625 8 9.90625Z" fill="#FBAF18"/>
<path d="M12.9612 7.37418C12.9418 7.21832 12.8266 7.0913 12.6741 7.05344L11.6619 6.80214C11.6003 6.61388 11.5248 6.43196 11.4363 6.25773L11.9744 5.36421C12.0555 5.22964 12.0471 5.05839 11.9506 4.93439C11.8238 4.77133 11.6854 4.61431 11.5356 4.46444C11.3857 4.31457 11.2287 4.1762 11.0656 4.04936C10.9416 3.95291 10.7704 3.94454 10.6358 4.02559L9.74227 4.5637C9.56804 4.47518 9.38612 4.39967 9.19786 4.33814L8.94656 3.32589C8.9087 3.17344 8.78171 3.05824 8.62582 3.03878C8.42079 3.01319 8.21194 3 8 3C7.78806 3 7.57921 3.01319 7.37418 3.03878C7.21832 3.05824 7.0913 3.17342 7.05344 3.32589L6.80214 4.33814C6.61388 4.39969 6.43196 4.47518 6.25773 4.5637L5.36421 4.02559C5.22964 3.94454 5.05839 3.95291 4.93439 4.04936C4.77133 4.17622 4.61431 4.31459 4.46444 4.46444C4.31457 4.61431 4.1762 4.77133 4.04936 4.93439C3.95291 5.05837 3.94454 5.22962 4.02559 5.36421L4.5637 6.25773C4.47518 6.43196 4.39967 6.61388 4.33814 6.80214L3.32589 7.05344C3.17344 7.0913 3.05824 7.21829 3.03878 7.37418C3.01319 7.57921 3 7.78806 3 8C3 8.21194 3.01319 8.42079 3.03878 8.62582C3.05824 8.78168 3.17342 8.9087 3.32589 8.94656L4.33814 9.19786C4.39969 9.38612 4.47518 9.56804 4.5637 9.74227L4.02559 10.6358C3.94454 10.7704 3.95291 10.9416 4.04936 11.0656C4.17622 11.2287 4.31459 11.3857 4.46444 11.5356C4.61431 11.6854 4.77133 11.8238 4.93439 11.9506C5.05837 12.0471 5.22962 12.0555 5.36421 11.9744L6.25773 11.4363C6.43196 11.5248 6.61388 11.6003 6.80214 11.6619L7.05344 12.6741C7.0913 12.8266 7.21829 12.9418 7.37418 12.9612C7.57918 12.9868 7.78806 13 8 13C8.21194 13 8.42079 12.9868 8.62582 12.9612C8.78168 12.9418 8.9087 12.8266 8.94656 12.6741L9.19786 11.6619C9.38612 11.6003 9.56804 11.5248 9.74227 11.4363L10.6358 11.9744C10.7704 12.0555 10.9416 12.0471 11.0656 11.9506C11.2287 11.8238 11.3857 11.6854 11.5356 11.5356C11.6854 11.3857 11.8238 11.2287 11.9506 11.0656C12.0471 10.9416 12.0555 10.7704 11.9744 10.6358L11.4363 9.74227C11.5248 9.56804 11.6003 9.38612 11.6619 9.19786L12.6741 8.94656C12.8266 8.9087 12.9418 8.78171 12.9612 8.62582C12.9868 8.42082 13 8.21194 13 8C13 7.78806 12.9868 7.57921 12.9612 7.37418ZM8 9.55612C7.14059 9.55612 6.44388 8.85941 6.44388 8C6.44388 7.14059 7.14059 6.44388 8 6.44388C8.85941 6.44388 9.55612 7.14059 9.55612 8C9.55612 8.85941 8.85941 9.55612 8 9.55612Z" fill="white"/>
</svg>
